<svg width="30" height="30" viewBox="0 0 30 30" fill="none" xmlns="http://www.w3.org/2000/svg">
<path fill-rule="evenodd" clip-rule="evenodd" d="M22.98 29.6688C23.3825 30.0108 23.9012 30.0963 24.3637 29.8863C24.8262 29.6748 25.1662 29.2008 25.2687 28.6263C26.3549 22.5002 28.9898 6.99473 29.9786 1.42222C30.0536 1.00222 29.9286 0.565723 29.6536 0.285223C29.3786 0.00472244 28.9973 -0.0762778 28.6573 0.0752224C23.4162 2.40322 7.27533 9.67073 0.677982 12.6002C0.259241 12.7862 -0.0132524 13.2692 0.000497306 13.7987C0.015497 14.3297 0.31299 14.7902 0.741731 14.9447C3.70041 16.0067 7.58407 17.4842 7.58407 17.4842C7.58407 17.4842 9.39903 24.0618 10.3453 27.4068C10.464 27.8268 10.7378 28.1568 11.099 28.2708C11.459 28.3833 11.844 28.2648 12.1127 27.9603C13.6327 26.2383 15.9826 23.5757 15.9826 23.5757C15.9826 23.5757 20.4475 27.5043 22.98 29.6688ZM9.21779 16.6532L11.3165 24.9603L11.7827 19.6997C11.7827 19.6997 19.8913 10.9232 24.5137 5.92073C24.6487 5.77373 24.6674 5.52773 24.5549 5.35523C24.4437 5.18273 24.2387 5.14223 24.085 5.25923C18.7276 9.36473 9.21779 16.6532 9.21779 16.6532Z" fill="#575757"/>
</svg>
