<svg width="30" height="30" viewBox="0 0 30 30" fill="none" xmlns="http://www.w3.org/2000/svg">
<path d="M15 0.370049C11.4382 0.370196 7.9927 1.63772 5.27996 3.94582C2.56721 6.25392 0.764262 9.45198 0.19371 12.9678C-0.376842 16.4836 0.322237 20.0877 2.16586 23.1352C4.00948 26.1827 6.87734 28.4748 10.2563 29.6013C11.0063 29.7326 11.2875 29.2826 11.2875 28.8888C11.2875 28.5325 11.2688 27.3513 11.2688 26.095C7.50001 26.7888 6.52501 25.1763 6.22501 24.3326C5.89212 23.512 5.36442 22.7848 4.68751 22.2138C4.16251 21.9325 3.41251 21.2388 4.66875 21.2201C5.14843 21.2721 5.60849 21.439 6.00996 21.7067C6.41142 21.9743 6.74246 22.3348 6.97501 22.7575C7.18017 23.1261 7.45603 23.4505 7.7868 23.7123C8.11756 23.974 8.49672 24.1679 8.90256 24.2829C9.3084 24.3979 9.73293 24.4316 10.1518 24.3822C10.5707 24.3328 10.9758 24.2012 11.3437 23.995C11.4087 23.2325 11.7485 22.5195 12.3 21.9888C8.96251 21.6138 5.47501 20.32 5.47501 14.5826C5.45393 13.0918 6.00404 11.6495 7.01251 10.5513C6.55393 9.25567 6.60759 7.83377 7.16251 6.57634C7.16251 6.57634 8.41872 6.18258 11.2875 8.11384C13.7419 7.4388 16.3331 7.4388 18.7875 8.11384C21.6562 6.16384 22.9125 6.57634 22.9125 6.57634C23.4675 7.83375 23.5212 9.25568 23.0625 10.5513C24.074 11.6476 24.6246 13.0912 24.6 14.5826C24.6 20.3388 21.0937 21.6138 17.7563 21.9888C18.1142 22.3517 18.3899 22.7873 18.5646 23.2661C18.7393 23.7449 18.809 24.2557 18.7688 24.7638C18.7688 26.7701 18.75 28.3826 18.75 28.8888C18.75 29.2826 19.0312 29.7513 19.7812 29.6013C23.1542 28.4656 26.0139 26.1682 27.8496 23.1191C29.6854 20.07 30.3778 16.4678 29.8033 12.9554C29.2288 9.44302 27.4248 6.24911 24.7132 3.94381C22.0017 1.63852 18.5591 0.371901 15 0.370049V0.370049Z" fill="#575757"/>
</svg>
