<svg width="33" height="33" viewBox="0 0 33 33" fill="none" xmlns="http://www.w3.org/2000/svg">
<path d="M28.34 0.959999H4.66001C2.61761 0.959999 0.960007 2.6176 0.960007 4.66V28.34C0.960007 30.3824 2.61761 32.04 4.66001 32.04H28.34C30.3824 32.04 32.04 30.3824 32.04 28.34V4.66C32.04 2.6176 30.3824 0.959999 28.34 0.959999ZM25.9128 22.42L23.1526 22.4126C23.1526 22.4126 23.0934 22.42 22.9972 22.42C22.7752 22.42 22.3164 22.3608 21.7762 21.9908C20.8068 21.3174 19.8818 19.645 19.1492 19.645C19.0974 19.645 19.053 19.6524 19.0086 19.6672C18.3722 19.867 18.1798 20.5034 18.1798 21.2804C18.1798 21.5542 17.9874 21.68 17.4694 21.68H16.0412C14.4428 21.68 12.8962 21.643 11.1572 19.7412C8.59681 16.9366 6.19921 11.949 6.19921 11.949C6.19921 11.949 6.06601 11.6604 6.20661 11.4902C6.33981 11.3348 6.65061 11.32 6.76901 11.32C6.79861 11.32 6.81341 11.32 6.81341 11.32H9.77341C9.77341 11.32 10.0472 11.3718 10.247 11.5198C10.4172 11.6456 10.506 11.875 10.506 11.875C10.506 11.875 11.0092 12.8518 11.6382 13.9544C12.6964 15.7748 13.2662 16.3816 13.6732 16.3816C13.7398 16.3816 13.8064 16.3668 13.873 16.3298C14.4798 15.9968 14.3022 13.3032 14.3022 13.3032C14.3022 13.3032 14.3096 12.3264 13.9914 11.8972C13.7472 11.5568 13.281 11.4606 13.0738 11.431C12.911 11.4088 13.1774 11.024 13.5326 10.8464C13.9914 10.6244 14.7536 10.58 15.6712 10.58H16.1152C16.981 10.5948 17.0032 10.6836 17.3436 10.765C18.3648 11.0092 18.017 11.9638 18.017 14.2504C18.017 14.983 17.8838 16.0116 18.4092 16.3594C18.4462 16.3816 18.498 16.3964 18.5646 16.3964C18.905 16.3964 19.6376 15.9598 20.8068 13.984C21.458 12.8592 21.9612 11.7418 21.9612 11.7418C21.9612 11.7418 22.0722 11.542 22.2424 11.4384C22.4052 11.3422 22.4052 11.3422 22.6198 11.3422H22.642C22.8788 11.3422 25.232 11.32 25.75 11.32H25.8092C26.305 11.32 26.7564 11.3274 26.8378 11.6308C26.9562 12.0896 26.4752 12.911 25.2098 14.613C23.123 17.4028 22.8862 17.1956 24.6178 18.8088C26.2754 20.348 26.6158 21.0954 26.675 21.1916C27.3632 22.3312 25.9128 22.42 25.9128 22.42Z" fill="#575757"/>
</svg>
